<svg width="585" height="1024" viewBox="0 0 585 1024" fill="none" xmlns="http://www.w3.org/2000/svg">
<g filter="url(#filter0_d_7_3)">
<path d="M83 318.857C83 317.415 83.5768 316.406 84.7305 315.829C85.8841 315.252 87.182 315.252 88.624 315.829L365.499 460.323C366.941 460.9 367.662 461.91 367.662 463.352V533.003C367.662 534.445 366.941 535.599 365.499 536.464L88.624 680.958C87.182 681.535 85.8841 681.535 84.7305 680.958C83.5768 680.093 83 678.939 83 677.497V611.739C83 610.297 83.721 609.144 85.1631 608.278L296.28 498.394L85.1631 388.076C83.721 387.211 83 386.057 83 384.615V318.857Z" fill="url(#paint0_linear_7_3)"/>
</g>
<rect x="465" y="334" width="120" height="337" fill="url(#paint1_linear_7_3)"/>
<defs>
<filter id="filter0_d_7_3" x="0" y="237.964" width="458.662" height="540.859" filterUnits="userSpaceOnUse" color-interpolation-filters="sRGB">
<feFlood flood-opacity="0" result="BackgroundImageFix"/>
<feColorMatrix in="SourceAlpha" type="matrix" values="0 0 0 0 0 0 0 0 0 0 0 0 0 0 0 0 0 0 127 0" result="hardAlpha"/>
<feOffset dx="4" dy="10"/>
<feGaussianBlur stdDeviation="43.5"/>
<feComposite in2="hardAlpha" operator="out"/>
<feColorMatrix type="matrix" values="0 0 0 0 0 0 0 0 0 0.0284167 0 0 0 0 0.129167 0 0 0 0.13 0"/>
<feBlend mode="normal" in2="BackgroundImageFix" result="effect1_dropShadow_7_3"/>
<feBlend mode="normal" in="SourceGraphic" in2="effect1_dropShadow_7_3" result="shape"/>
</filter>
<linearGradient id="paint0_linear_7_3" x1="311.794" y1="269.037" x2="343.696" y2="514.197" gradientUnits="userSpaceOnUse">
<stop stop-color="#0042ED"/>
<stop offset="1" stop-color="#000D30"/>
</linearGradient>
<linearGradient id="paint1_linear_7_3" x1="525" y1="334" x2="525" y2="791" gradientUnits="userSpaceOnUse">
<stop stop-color="#5A5A5A"/>
<stop offset="1" stop-opacity="0"/>
</linearGradient>
</defs>
</svg>
